<?xml version="1.0" encoding="utf-8"?>
<!-- Generator: Adobe Illustrator 16.0.0, SVG Export Plug-In . SVG Version: 6.00 Build 0)  -->
<!DOCTYPE svg PUBLIC "-//W3C//DTD SVG 1.1//EN" "http://www.w3.org/Graphics/SVG/1.1/DTD/svg11.dtd">
<svg version="1.1" id="Layer_1" xmlns="http://www.w3.org/2000/svg" xmlns:xlink="http://www.w3.org/1999/xlink" x="0px" y="0px"
	 width="171.535px" height="93.75px" viewBox="0 0 171.535 93.75" enable-background="new 0 0 171.535 93.75" xml:space="preserve">
<g id="Layer_1_1_" display="none">
	<rect x="164.046" y="14.285" display="inline" fill="none" width="165.464" height="19.499"/>
	<g display="inline" enable-background="new    ">
		<path fill="none" stroke="#000000" stroke-width="4" d="M167.649,31.969v-17.18h2.109v9.797l4.992-5.062h2.729l-4.758,4.617
			l5.238,7.828h-2.603l-4.112-6.363l-1.488,1.43v4.934L167.649,31.969L167.649,31.969z"/>
	</g>
	<rect x="164.046" y="14.285" display="inline" fill="none" width="165.464" height="19.499"/>
	<g display="inline" enable-background="new    ">
		<path fill="#BCBEC0" d="M167.649,31.969v-17.18h2.109v9.797l4.992-5.062h2.729l-4.758,4.617l5.238,7.828h-2.603l-4.112-6.363
			l-1.488,1.43v4.934L167.649,31.969L167.649,31.969z"/>
	</g>
	<path display="inline" fill="none" stroke="#000000" stroke-width="2" stroke-linecap="round" stroke-linejoin="round" d="M1,68.54
		c0,0,18.542-10.015,84.689-10.015c66.148,0,85.062,10.015,85.062,10.015"/>
	<path display="inline" fill="none" d="M1,89.277c0,0,18.542-5.014,84.689-5.014c66.148,0,85.062,5.014,85.062,5.014"/>
	<g display="inline" enable-background="new    ">
		<path fill="none" stroke="#000000" stroke-width="5" d="M9.967,87.715L7.985,70.65l2.096-0.243l1.131,9.731l4.374-5.605
			l2.713-0.315l-4.193,5.136l6.106,7.172l-2.584,0.3l-4.82-5.847l-1.312,1.592l0.568,4.9L9.967,87.715z"/>
	</g>
	<g display="inline" enable-background="new    ">
		<path fill="none" stroke="#000000" stroke-width="5" d="M18.276,71.936l-0.278-2.41l2.095-0.242l0.28,2.408L18.276,71.936z
			 M19.979,86.59l-1.437-12.361l2.096-0.244l1.437,12.363L19.979,86.59z"/>
	</g>
	<g display="inline" enable-background="new    ">
		<path fill="none" stroke="#000000" stroke-width="5" d="M33.411,85.152l-0.182-1.56c-0.642,1.317-1.723,2.064-3.243,2.241
			c-0.984,0.114-1.924-0.052-2.812-0.499c-0.889-0.446-1.617-1.131-2.186-2.053c-0.566-0.921-0.924-2.015-1.07-3.278
			c-0.145-1.234-0.067-2.377,0.228-3.43c0.294-1.053,0.821-1.895,1.582-2.525c0.76-0.631,1.648-1.006,2.665-1.124
			c0.745-0.087,1.427-0.006,2.046,0.24c0.618,0.247,1.14,0.601,1.562,1.063l-0.712-6.123l2.084-0.242l1.981,17.063L33.411,85.152z
			 M26.071,79.753c0.186,1.583,0.655,2.728,1.414,3.435c0.76,0.707,1.593,1.006,2.499,0.9c0.916-0.105,1.65-0.57,2.204-1.395
			c0.554-0.822,0.74-2.002,0.562-3.539c-0.196-1.691-0.667-2.896-1.41-3.611c-0.744-0.715-1.594-1.018-2.548-0.907
			c-0.933,0.108-1.665,0.579-2.201,1.413C26.054,76.88,25.881,78.116,26.071,79.753z"/>
	</g>
	<g display="inline" enable-background="new    ">
		<path fill="none" stroke="#000000" stroke-width="5" d="M34.757,81.766l2.034-0.567c0.213,0.815,0.609,1.416,1.192,1.796
			c0.583,0.381,1.353,0.515,2.308,0.404c0.962-0.112,1.652-0.392,2.072-0.838c0.421-0.444,0.6-0.933,0.538-1.459
			c-0.056-0.475-0.304-0.824-0.747-1.047c-0.309-0.152-1.05-0.307-2.224-0.461c-1.582-0.209-2.687-0.421-3.312-0.636
			c-0.627-0.214-1.122-0.554-1.487-1.019c-0.364-0.465-0.582-1-0.652-1.604c-0.062-0.551,0.003-1.076,0.2-1.575
			c0.198-0.498,0.496-0.929,0.896-1.289c0.298-0.279,0.719-0.535,1.262-0.766c0.543-0.232,1.138-0.387,1.781-0.461
			c0.97-0.113,1.838-0.072,2.604,0.122s1.353,0.51,1.756,0.946c0.404,0.437,0.721,1.047,0.944,1.832l-2.018,0.517
			c-0.167-0.625-0.493-1.091-0.98-1.396c-0.488-0.306-1.14-0.41-1.954-0.315c-0.963,0.112-1.631,0.351-2.005,0.717
			s-0.537,0.763-0.487,1.188c0.032,0.272,0.146,0.506,0.342,0.705c0.196,0.205,0.485,0.36,0.867,0.465
			c0.219,0.054,0.856,0.16,1.914,0.32c1.527,0.225,2.601,0.428,3.215,0.611c0.615,0.184,1.117,0.498,1.508,0.939
			c0.39,0.442,0.626,1.021,0.709,1.734c0.08,0.698-0.047,1.381-0.383,2.044c-0.336,0.664-0.867,1.209-1.598,1.638
			c-0.729,0.426-1.578,0.695-2.548,0.809c-1.606,0.188-2.87-0.005-3.789-0.574C35.794,83.977,35.142,83.048,34.757,81.766z"/>
	</g>
	<g display="inline" enable-background="new    ">
		<path fill="none" stroke="#000000" stroke-width="5" d="M50.502,78.533c-0.267-2.289,0.174-4.059,1.316-5.309
			c0.958-1.041,2.2-1.648,3.729-1.826c1.699-0.198,3.152,0.199,4.36,1.187c1.208,0.988,1.927,2.464,2.153,4.427
			c0.187,1.592,0.092,2.87-0.278,3.838c-0.372,0.967-0.983,1.756-1.838,2.365c-0.854,0.611-1.818,0.979-2.896,1.104
			c-1.73,0.201-3.194-0.19-4.39-1.176C51.464,82.156,50.745,80.62,50.502,78.533z M52.656,78.282
			c0.185,1.583,0.668,2.729,1.449,3.436c0.782,0.708,1.697,1,2.745,0.88c1.039-0.121,1.858-0.617,2.457-1.49
			c0.599-0.871,0.804-2.117,0.615-3.739c-0.178-1.528-0.659-2.646-1.445-3.354c-0.786-0.705-1.694-1-2.727-0.88
			c-1.048,0.122-1.871,0.615-2.472,1.479C52.68,75.477,52.472,76.699,52.656,78.282z"/>
	</g>
	<g display="inline" enable-background="new    ">
		<path fill="none" stroke="#000000" stroke-width="5" d="M62.084,84.336l-1.438-12.361l1.887-0.22l0.203,1.759
			c0.75-1.464,1.983-2.296,3.698-2.496c0.745-0.086,1.445-0.031,2.102,0.164c0.655,0.195,1.164,0.491,1.524,0.891
			c0.361,0.398,0.64,0.89,0.832,1.473c0.122,0.378,0.24,1.053,0.354,2.023l0.883,7.601l-2.095,0.244l-0.874-7.521
			c-0.1-0.854-0.256-1.482-0.467-1.887c-0.213-0.404-0.541-0.708-0.984-0.912c-0.444-0.203-0.946-0.273-1.505-0.208
			c-0.894,0.104-1.63,0.476-2.212,1.118s-0.781,1.754-0.599,3.337l0.784,6.751L62.084,84.336z"/>
	</g>
	<g display="inline" enable-background="new    ">
		<path fill="none" stroke="#000000" stroke-width="5" d="M87.243,78.628l2.091,0.028c-0.061,1.447-0.507,2.625-1.341,3.535
			c-0.834,0.912-1.928,1.445-3.276,1.603c-1.692,0.196-3.116-0.198-4.273-1.185c-1.155-0.986-1.854-2.512-2.094-4.576
			c-0.155-1.334-0.07-2.528,0.256-3.58c0.326-1.053,0.912-1.883,1.758-2.488c0.847-0.605,1.802-0.97,2.864-1.094
			c1.342-0.156,2.479,0.056,3.412,0.636c0.933,0.581,1.592,1.481,1.979,2.702l-2.001,0.551c-0.29-0.808-0.706-1.393-1.248-1.754
			c-0.541-0.361-1.161-0.502-1.859-0.421c-1.056,0.123-1.869,0.601-2.441,1.435c-0.57,0.834-0.762,2.068-0.57,3.707
			c0.191,1.659,0.65,2.83,1.375,3.508c0.724,0.68,1.598,0.959,2.622,0.841c0.821-0.097,1.479-0.429,1.973-0.997
			C86.958,80.51,87.216,79.693,87.243,78.628z"/>
	</g>
	<g display="inline" enable-background="new    ">
		<path fill="none" stroke="#000000" stroke-width="5" d="M87.846,77.982c-0.266-2.289,0.174-4.06,1.317-5.31
			c0.958-1.04,2.199-1.647,3.729-1.825c1.699-0.199,3.152,0.198,4.36,1.187c1.208,0.987,1.927,2.464,2.153,4.427
			c0.187,1.591,0.093,2.87-0.278,3.837c-0.372,0.968-0.983,1.757-1.837,2.366c-0.854,0.611-1.819,0.979-2.897,1.104
			c-1.729,0.201-3.193-0.19-4.39-1.177C88.808,81.605,88.088,80.068,87.846,77.982z M90,77.73c0.184,1.584,0.667,2.729,1.449,3.437
			c0.781,0.708,1.696,1,2.744,0.879c1.039-0.121,1.858-0.616,2.457-1.489c0.6-0.871,0.805-2.117,0.615-3.74
			c-0.178-1.527-0.659-2.646-1.445-3.354c-0.785-0.706-1.694-1-2.727-0.88c-1.048,0.122-1.871,0.615-2.471,1.479
			C90.024,74.925,89.816,76.148,90,77.73z"/>
	</g>
	<g display="inline" enable-background="new    ">
		<path fill="none" stroke="#000000" stroke-width="5" d="M99.417,84.107L97.98,71.745l1.874-0.218l0.202,1.733
			c0.317-0.649,0.777-1.196,1.378-1.64c0.603-0.444,1.313-0.714,2.136-0.809c0.916-0.106,1.688-0.004,2.318,0.309
			c0.631,0.312,1.105,0.796,1.426,1.451c0.811-1.557,1.999-2.428,3.566-2.609c1.226-0.143,2.208,0.088,2.946,0.689
			c0.737,0.604,1.189,1.611,1.354,3.023l0.985,8.485l-2.084,0.241l-0.904-7.786c-0.098-0.839-0.235-1.435-0.414-1.787
			s-0.459-0.621-0.843-0.804c-0.383-0.185-0.814-0.248-1.296-0.192c-0.869,0.101-1.558,0.474-2.064,1.119s-0.687,1.603-0.539,2.876
			l0.835,7.182l-2.096,0.244l-0.934-8.031c-0.107-0.932-0.359-1.609-0.756-2.035c-0.396-0.427-0.98-0.595-1.757-0.504
			c-0.59,0.068-1.117,0.286-1.582,0.655c-0.465,0.368-0.773,0.864-0.931,1.487c-0.155,0.624-0.167,1.499-0.037,2.624l0.745,6.414
			L99.417,84.107z"/>
	</g>
	<g display="inline" enable-background="new    ">
		<path fill="none" stroke="#000000" stroke-width="5" d="M116.407,89.152l-1.987-17.1l1.909-0.222l0.187,1.606
			c0.377-0.681,0.831-1.211,1.361-1.592c0.528-0.38,1.198-0.617,2.005-0.711c1.056-0.123,2.019,0.042,2.889,0.491
			s1.568,1.146,2.095,2.086c0.526,0.942,0.857,2.003,0.995,3.183c0.146,1.266,0.053,2.431-0.284,3.496
			c-0.336,1.064-0.905,1.916-1.708,2.558c-0.804,0.639-1.682,1.015-2.637,1.125c-0.697,0.081-1.342,0.006-1.931-0.224
			c-0.589-0.23-1.089-0.55-1.498-0.959l0.699,6.019L116.407,89.152z M117.043,78.084c0.185,1.591,0.644,2.729,1.375,3.415
			s1.558,0.976,2.473,0.869c0.933-0.108,1.684-0.595,2.255-1.459c0.572-0.864,0.763-2.124,0.57-3.777
			c-0.184-1.575-0.646-2.716-1.383-3.425c-0.739-0.709-1.561-1.012-2.459-0.906c-0.894,0.104-1.634,0.612-2.225,1.526
			C117.061,75.241,116.859,76.493,117.043,78.084z"/>
	</g>
	<g display="inline" enable-background="new    ">
		<path fill="none" stroke="#000000" stroke-width="5" d="M134.606,83.822l-0.211-1.815c-0.8,1.509-2.025,2.358-3.68,2.55
			c-0.729,0.086-1.426,0.024-2.092-0.182c-0.664-0.206-1.175-0.503-1.53-0.891c-0.355-0.387-0.631-0.879-0.826-1.479
			c-0.134-0.4-0.252-1.049-0.354-1.939l-0.891-7.66l2.096-0.243l0.797,6.856c0.127,1.095,0.255,1.826,0.385,2.196
			c0.196,0.536,0.525,0.937,0.988,1.201c0.464,0.265,1.01,0.36,1.639,0.288c0.629-0.073,1.199-0.303,1.713-0.689
			c0.514-0.386,0.854-0.869,1.019-1.451c0.163-0.58,0.185-1.399,0.062-2.455l-0.77-6.623l2.095-0.243l1.437,12.362L134.606,83.822z"
			/>
	</g>
	<g display="inline" enable-background="new    ">
		<path fill="none" stroke="#000000" stroke-width="5" d="M141.374,82.864l0.518,1.815c-0.576,0.191-1.097,0.315-1.562,0.37
			c-0.761,0.089-1.363,0.037-1.812-0.155c-0.447-0.191-0.777-0.475-0.995-0.846c-0.217-0.371-0.396-1.188-0.543-2.443l-0.826-7.112
			l-1.536,0.179l-0.189-1.63l1.537-0.179l-0.355-3.062l1.938-1.5l0.501,4.318l2.107-0.245l0.188,1.63l-2.106,0.245l0.84,7.229
			c0.068,0.599,0.149,0.978,0.244,1.141c0.094,0.162,0.229,0.283,0.407,0.365c0.18,0.082,0.424,0.104,0.733,0.067
			C140.696,83.023,140.999,82.962,141.374,82.864z"/>
	</g>
	<g display="inline" enable-background="new    ">
		<path fill="none" stroke="#000000" stroke-width="5" d="M152.206,80.74l2.195,0.016c-0.193,1.305-0.713,2.359-1.556,3.165
			c-0.842,0.808-1.98,1.292-3.417,1.459c-1.808,0.21-3.307-0.18-4.495-1.17c-1.188-0.991-1.898-2.491-2.133-4.501
			c-0.241-2.08,0.106-3.756,1.043-5.029c0.938-1.273,2.261-2.009,3.968-2.207c1.653-0.192,3.068,0.213,4.247,1.217
			c1.178,1.004,1.886,2.525,2.123,4.566c0.015,0.124,0.032,0.311,0.053,0.561l-9.219,1.07c0.235,1.35,0.74,2.344,1.515,2.986
			s1.679,0.902,2.711,0.782c0.769-0.089,1.399-0.368,1.896-0.835C151.634,82.355,151.99,81.661,152.206,80.74z M144.932,78.152
			l6.903-0.803c-0.214-1.029-0.568-1.777-1.063-2.248c-0.762-0.729-1.674-1.033-2.735-0.91c-0.963,0.113-1.734,0.528-2.315,1.25
			C145.14,76.161,144.877,77.064,144.932,78.152z"/>
	</g>
	<g display="inline" enable-background="new    ">
		<path fill="none" stroke="#000000" stroke-width="5" d="M153.897,86.495l-1.437-12.362l1.886-0.219l0.218,1.875
			c0.38-0.934,0.757-1.562,1.132-1.891c0.375-0.326,0.808-0.518,1.297-0.574c0.706-0.082,1.449,0.06,2.23,0.426l-0.496,2.027
			c-0.547-0.243-1.076-0.336-1.589-0.275c-0.458,0.053-0.853,0.239-1.186,0.559c-0.333,0.316-0.55,0.729-0.646,1.236
			c-0.146,0.771-0.169,1.6-0.064,2.485l0.751,6.472L153.897,86.495z"/>
	</g>
	<g display="inline" enable-background="new    ">
		<path fill="none" stroke="#000000" stroke-width="5" d="M160.892,83.761l2.034-0.567c0.213,0.816,0.61,1.416,1.193,1.797
			s1.352,0.515,2.307,0.404c0.962-0.112,1.653-0.392,2.073-0.838c0.42-0.445,0.599-0.933,0.538-1.459
			c-0.057-0.475-0.305-0.824-0.747-1.047c-0.31-0.152-1.05-0.307-2.225-0.461c-1.582-0.209-2.687-0.421-3.312-0.636
			c-0.627-0.214-1.122-0.554-1.487-1.019c-0.364-0.465-0.582-1-0.651-1.604c-0.063-0.551,0.003-1.076,0.199-1.575
			c0.198-0.498,0.496-0.929,0.896-1.29c0.298-0.278,0.719-0.534,1.262-0.765c0.543-0.232,1.138-0.387,1.781-0.461
			c0.97-0.113,1.838-0.072,2.604,0.121c0.767,0.195,1.353,0.511,1.756,0.947c0.404,0.437,0.721,1.047,0.944,1.832l-2.017,0.517
			c-0.167-0.625-0.494-1.091-0.981-1.396c-0.488-0.306-1.14-0.41-1.954-0.315c-0.963,0.112-1.631,0.351-2.005,0.717
			s-0.537,0.762-0.487,1.188c0.032,0.272,0.146,0.506,0.343,0.705c0.195,0.205,0.484,0.36,0.866,0.465
			c0.22,0.054,0.856,0.16,1.914,0.32c1.527,0.225,2.601,0.428,3.216,0.611c0.614,0.184,1.116,0.498,1.507,0.939
			c0.39,0.442,0.626,1.021,0.709,1.734c0.081,0.698-0.046,1.38-0.382,2.044s-0.868,1.209-1.599,1.638
			c-0.729,0.426-1.578,0.695-2.548,0.809c-1.605,0.188-2.87-0.005-3.789-0.574C161.929,85.973,161.277,85.044,160.892,83.761z"/>
	</g>
	<path display="inline" fill="none" d="M1,89.277c0,0,18.542-5.014,84.689-5.014c66.148,0,85.062,5.014,85.062,5.014"/>
	<g display="inline" enable-background="new    ">
		<path fill="#FFFFFF" d="M9.967,87.715L7.985,70.65l2.096-0.243l1.131,9.731l4.374-5.605l2.713-0.315l-4.193,5.136l6.106,7.172
			l-2.584,0.3l-4.82-5.847l-1.312,1.592l0.568,4.9L9.967,87.715z"/>
	</g>
	<g display="inline" enable-background="new    ">
		<path fill="#FFFFFF" d="M18.276,71.936l-0.278-2.41l2.095-0.242l0.28,2.408L18.276,71.936z M19.979,86.59l-1.437-12.361
			l2.096-0.244l1.437,12.363L19.979,86.59z"/>
	</g>
	<g display="inline" enable-background="new    ">
		<path fill="#FFFFFF" d="M33.411,85.152l-0.182-1.56c-0.642,1.317-1.723,2.064-3.243,2.241c-0.984,0.114-1.924-0.052-2.812-0.499
			c-0.889-0.446-1.617-1.131-2.186-2.053c-0.566-0.921-0.924-2.015-1.07-3.278c-0.145-1.234-0.067-2.377,0.228-3.43
			c0.294-1.053,0.821-1.895,1.582-2.525c0.76-0.631,1.648-1.006,2.665-1.124c0.745-0.087,1.427-0.006,2.046,0.24
			c0.618,0.247,1.14,0.601,1.562,1.063l-0.712-6.123l2.084-0.242l1.981,17.063L33.411,85.152z M26.071,79.753
			c0.186,1.583,0.655,2.728,1.414,3.435c0.76,0.707,1.593,1.006,2.499,0.9c0.916-0.105,1.65-0.57,2.204-1.395
			c0.554-0.822,0.74-2.002,0.562-3.539c-0.196-1.691-0.667-2.896-1.41-3.611c-0.744-0.715-1.594-1.018-2.548-0.907
			c-0.933,0.108-1.665,0.579-2.201,1.413C26.054,76.88,25.881,78.116,26.071,79.753z"/>
	</g>
	<g display="inline" enable-background="new    ">
		<path fill="#FFFFFF" d="M34.757,81.766l2.034-0.567c0.213,0.815,0.609,1.416,1.192,1.796c0.583,0.381,1.353,0.515,2.308,0.404
			c0.962-0.112,1.652-0.392,2.072-0.838c0.421-0.444,0.6-0.933,0.538-1.459c-0.056-0.475-0.304-0.824-0.747-1.047
			c-0.309-0.152-1.05-0.307-2.224-0.461c-1.582-0.209-2.687-0.421-3.312-0.636c-0.627-0.214-1.122-0.554-1.487-1.019
			c-0.364-0.465-0.582-1-0.652-1.604c-0.062-0.551,0.003-1.076,0.2-1.575c0.198-0.498,0.496-0.929,0.896-1.289
			c0.298-0.279,0.719-0.535,1.262-0.766c0.543-0.232,1.138-0.387,1.781-0.461c0.97-0.113,1.838-0.072,2.604,0.122
			s1.353,0.51,1.756,0.946c0.404,0.437,0.721,1.047,0.944,1.832l-2.018,0.517c-0.167-0.625-0.493-1.091-0.98-1.396
			c-0.488-0.306-1.14-0.41-1.954-0.315c-0.963,0.112-1.631,0.351-2.005,0.717s-0.537,0.763-0.487,1.188
			c0.032,0.272,0.146,0.506,0.342,0.705c0.196,0.205,0.485,0.36,0.867,0.465c0.219,0.054,0.856,0.16,1.914,0.32
			c1.527,0.225,2.601,0.428,3.215,0.611c0.615,0.184,1.117,0.498,1.508,0.939c0.39,0.442,0.626,1.021,0.709,1.734
			c0.08,0.698-0.047,1.381-0.383,2.044c-0.336,0.664-0.867,1.209-1.598,1.638c-0.729,0.426-1.578,0.695-2.548,0.809
			c-1.606,0.188-2.87-0.005-3.789-0.574C35.794,83.977,35.142,83.048,34.757,81.766z"/>
	</g>
	<g display="inline" enable-background="new    ">
		<path fill="#FFFFFF" d="M50.502,78.533c-0.267-2.289,0.174-4.059,1.316-5.309c0.958-1.041,2.2-1.648,3.729-1.826
			c1.699-0.198,3.152,0.199,4.36,1.187c1.208,0.988,1.927,2.464,2.153,4.427c0.187,1.592,0.092,2.87-0.278,3.838
			c-0.372,0.967-0.983,1.756-1.838,2.365c-0.854,0.611-1.818,0.979-2.896,1.104c-1.73,0.201-3.194-0.19-4.39-1.176
			C51.464,82.156,50.745,80.62,50.502,78.533z M52.656,78.282c0.185,1.583,0.668,2.729,1.449,3.436c0.782,0.708,1.697,1,2.745,0.88
			c1.039-0.121,1.858-0.617,2.457-1.49c0.599-0.871,0.804-2.117,0.615-3.739c-0.178-1.528-0.659-2.646-1.445-3.354
			c-0.786-0.705-1.694-1-2.727-0.88c-1.048,0.122-1.871,0.615-2.472,1.479C52.68,75.477,52.472,76.699,52.656,78.282z"/>
	</g>
	<g display="inline" enable-background="new    ">
		<path fill="#FFFFFF" d="M62.084,84.336l-1.438-12.361l1.887-0.22l0.203,1.759c0.75-1.464,1.983-2.296,3.698-2.496
			c0.745-0.086,1.445-0.031,2.102,0.164c0.655,0.195,1.164,0.491,1.524,0.891c0.361,0.398,0.64,0.89,0.832,1.473
			c0.122,0.378,0.24,1.053,0.354,2.023l0.883,7.601l-2.095,0.244l-0.874-7.521c-0.1-0.854-0.256-1.482-0.467-1.887
			c-0.213-0.404-0.541-0.708-0.984-0.912c-0.444-0.203-0.946-0.273-1.505-0.208c-0.894,0.104-1.63,0.476-2.212,1.118
			s-0.781,1.754-0.599,3.337l0.784,6.751L62.084,84.336z"/>
	</g>
	<g display="inline" enable-background="new    ">
		<path fill="#FFFFFF" d="M87.243,78.628l2.091,0.028c-0.061,1.447-0.507,2.625-1.341,3.535c-0.834,0.912-1.928,1.445-3.276,1.603
			c-1.692,0.196-3.116-0.198-4.273-1.185c-1.155-0.986-1.854-2.512-2.094-4.576c-0.155-1.334-0.07-2.528,0.256-3.58
			c0.326-1.053,0.912-1.883,1.758-2.488c0.847-0.605,1.802-0.97,2.864-1.094c1.342-0.156,2.479,0.056,3.412,0.636
			c0.933,0.581,1.592,1.481,1.979,2.702l-2.001,0.551c-0.29-0.808-0.706-1.393-1.248-1.754c-0.541-0.361-1.161-0.502-1.859-0.421
			c-1.056,0.123-1.869,0.601-2.441,1.435c-0.57,0.834-0.762,2.068-0.57,3.707c0.191,1.659,0.65,2.83,1.375,3.508
			c0.724,0.68,1.598,0.959,2.622,0.841c0.821-0.097,1.479-0.429,1.973-0.997C86.958,80.51,87.216,79.693,87.243,78.628z"/>
	</g>
	<g display="inline" enable-background="new    ">
		<path fill="#FFFFFF" d="M87.846,77.982c-0.266-2.289,0.174-4.06,1.317-5.31c0.958-1.04,2.199-1.647,3.729-1.825
			c1.699-0.199,3.152,0.198,4.36,1.187c1.208,0.987,1.927,2.464,2.153,4.427c0.187,1.591,0.093,2.87-0.278,3.837
			c-0.372,0.968-0.983,1.757-1.837,2.366c-0.854,0.611-1.819,0.979-2.897,1.104c-1.729,0.201-3.193-0.19-4.39-1.177
			C88.808,81.605,88.088,80.068,87.846,77.982z M90,77.73c0.184,1.584,0.667,2.729,1.449,3.437c0.781,0.708,1.696,1,2.744,0.879
			c1.039-0.121,1.858-0.616,2.457-1.489c0.6-0.871,0.805-2.117,0.615-3.74c-0.178-1.527-0.659-2.646-1.445-3.354
			c-0.785-0.706-1.694-1-2.727-0.88c-1.048,0.122-1.871,0.615-2.471,1.479C90.024,74.925,89.816,76.148,90,77.73z"/>
	</g>
	<g display="inline" enable-background="new    ">
		<path fill="#FFFFFF" d="M99.417,84.107L97.98,71.745l1.874-0.218l0.202,1.733c0.317-0.649,0.777-1.196,1.378-1.64
			c0.603-0.444,1.313-0.714,2.136-0.809c0.916-0.106,1.688-0.004,2.318,0.309c0.631,0.312,1.105,0.796,1.426,1.451
			c0.811-1.557,1.999-2.428,3.566-2.609c1.226-0.143,2.208,0.088,2.946,0.689c0.737,0.604,1.189,1.611,1.354,3.023l0.985,8.485
			l-2.084,0.241l-0.904-7.786c-0.098-0.839-0.235-1.435-0.414-1.787s-0.459-0.621-0.843-0.804c-0.383-0.185-0.814-0.248-1.296-0.192
			c-0.869,0.101-1.558,0.474-2.064,1.119s-0.687,1.603-0.539,2.876l0.835,7.182l-2.096,0.244l-0.934-8.031
			c-0.107-0.932-0.359-1.609-0.756-2.035c-0.396-0.427-0.98-0.595-1.757-0.504c-0.59,0.068-1.117,0.286-1.582,0.655
			c-0.465,0.368-0.773,0.864-0.931,1.487c-0.155,0.624-0.167,1.499-0.037,2.624l0.745,6.414L99.417,84.107z"/>
	</g>
	<g display="inline" enable-background="new    ">
		<path fill="#FFFFFF" d="M116.407,89.152l-1.987-17.1l1.909-0.222l0.187,1.606c0.377-0.681,0.831-1.211,1.361-1.592
			c0.528-0.38,1.198-0.617,2.005-0.711c1.056-0.123,2.019,0.042,2.889,0.491s1.568,1.146,2.095,2.086
			c0.526,0.942,0.857,2.003,0.995,3.183c0.146,1.266,0.053,2.431-0.284,3.496c-0.336,1.064-0.905,1.916-1.708,2.558
			c-0.804,0.639-1.682,1.015-2.637,1.125c-0.697,0.081-1.342,0.006-1.931-0.224c-0.589-0.23-1.089-0.55-1.498-0.959l0.699,6.019
			L116.407,89.152z M117.043,78.084c0.185,1.591,0.644,2.729,1.375,3.415s1.558,0.976,2.473,0.869
			c0.933-0.108,1.684-0.595,2.255-1.459c0.572-0.864,0.763-2.124,0.57-3.777c-0.184-1.575-0.646-2.716-1.383-3.425
			c-0.739-0.709-1.561-1.012-2.459-0.906c-0.894,0.104-1.634,0.612-2.225,1.526C117.061,75.241,116.859,76.493,117.043,78.084z"/>
	</g>
	<g display="inline" enable-background="new    ">
		<path fill="#FFFFFF" d="M134.606,83.822l-0.211-1.815c-0.8,1.509-2.025,2.358-3.68,2.55c-0.729,0.086-1.426,0.024-2.092-0.182
			c-0.664-0.206-1.175-0.503-1.53-0.891c-0.355-0.387-0.631-0.879-0.826-1.479c-0.134-0.4-0.252-1.049-0.354-1.939l-0.891-7.66
			l2.096-0.243l0.797,6.856c0.127,1.095,0.255,1.826,0.385,2.196c0.196,0.536,0.525,0.937,0.988,1.201
			c0.464,0.265,1.01,0.36,1.639,0.288c0.629-0.073,1.199-0.303,1.713-0.689c0.514-0.386,0.854-0.869,1.019-1.451
			c0.163-0.58,0.185-1.399,0.062-2.455l-0.77-6.623l2.095-0.243l1.437,12.362L134.606,83.822z"/>
	</g>
	<g display="inline" enable-background="new    ">
		<path fill="#FFFFFF" d="M141.374,82.864l0.518,1.815c-0.576,0.191-1.097,0.315-1.562,0.37c-0.761,0.089-1.363,0.037-1.812-0.155
			c-0.447-0.191-0.777-0.475-0.995-0.846c-0.217-0.371-0.396-1.188-0.543-2.443l-0.826-7.112l-1.536,0.179l-0.189-1.63l1.537-0.179
			l-0.355-3.062l1.938-1.5l0.501,4.318l2.107-0.245l0.188,1.63l-2.106,0.245l0.84,7.229c0.068,0.599,0.149,0.978,0.244,1.141
			c0.094,0.162,0.229,0.283,0.407,0.365c0.18,0.082,0.424,0.104,0.733,0.067C140.696,83.023,140.999,82.962,141.374,82.864z"/>
	</g>
	<g display="inline" enable-background="new    ">
		<path fill="#FFFFFF" d="M152.206,80.74l2.195,0.016c-0.193,1.305-0.713,2.359-1.556,3.165c-0.842,0.808-1.98,1.292-3.417,1.459
			c-1.808,0.21-3.307-0.18-4.495-1.17c-1.188-0.991-1.898-2.491-2.133-4.501c-0.241-2.08,0.106-3.756,1.043-5.029
			c0.938-1.273,2.261-2.009,3.968-2.207c1.653-0.192,3.068,0.213,4.247,1.217c1.178,1.004,1.886,2.525,2.123,4.566
			c0.015,0.124,0.032,0.311,0.053,0.561l-9.219,1.07c0.235,1.35,0.74,2.344,1.515,2.986s1.679,0.902,2.711,0.782
			c0.769-0.089,1.399-0.368,1.896-0.835C151.634,82.355,151.99,81.661,152.206,80.74z M144.932,78.152l6.903-0.803
			c-0.214-1.029-0.568-1.777-1.063-2.248c-0.762-0.729-1.674-1.033-2.735-0.91c-0.963,0.113-1.734,0.528-2.315,1.25
			C145.14,76.161,144.877,77.064,144.932,78.152z"/>
	</g>
	<g display="inline" enable-background="new    ">
		<path fill="#FFFFFF" d="M153.897,86.495l-1.437-12.362l1.886-0.219l0.218,1.875c0.38-0.934,0.757-1.562,1.132-1.891
			c0.375-0.326,0.808-0.518,1.297-0.574c0.706-0.082,1.449,0.06,2.23,0.426l-0.496,2.027c-0.547-0.243-1.076-0.336-1.589-0.275
			c-0.458,0.053-0.853,0.239-1.186,0.559c-0.333,0.316-0.55,0.729-0.646,1.236c-0.146,0.771-0.169,1.6-0.064,2.485l0.751,6.472
			L153.897,86.495z"/>
	</g>
	<g display="inline" enable-background="new    ">
		<path fill="#FFFFFF" d="M160.892,83.761l2.034-0.567c0.213,0.816,0.61,1.416,1.193,1.797s1.352,0.515,2.307,0.404
			c0.962-0.112,1.653-0.392,2.073-0.838c0.42-0.445,0.599-0.933,0.538-1.459c-0.057-0.475-0.305-0.824-0.747-1.047
			c-0.31-0.152-1.05-0.307-2.225-0.461c-1.582-0.209-2.687-0.421-3.312-0.636c-0.627-0.214-1.122-0.554-1.487-1.019
			c-0.364-0.465-0.582-1-0.651-1.604c-0.063-0.551,0.003-1.076,0.199-1.575c0.198-0.498,0.496-0.929,0.896-1.29
			c0.298-0.278,0.719-0.534,1.262-0.765c0.543-0.232,1.138-0.387,1.781-0.461c0.97-0.113,1.838-0.072,2.604,0.121
			c0.767,0.195,1.353,0.511,1.756,0.947c0.404,0.437,0.721,1.047,0.944,1.832l-2.017,0.517c-0.167-0.625-0.494-1.091-0.981-1.396
			c-0.488-0.306-1.14-0.41-1.954-0.315c-0.963,0.112-1.631,0.351-2.005,0.717s-0.537,0.762-0.487,1.188
			c0.032,0.272,0.146,0.506,0.343,0.705c0.195,0.205,0.484,0.36,0.866,0.465c0.22,0.054,0.856,0.16,1.914,0.32
			c1.527,0.225,2.601,0.428,3.216,0.611c0.614,0.184,1.116,0.498,1.507,0.939c0.39,0.442,0.626,1.021,0.709,1.734
			c0.081,0.698-0.046,1.38-0.382,2.044s-0.868,1.209-1.599,1.638c-0.729,0.426-1.578,0.695-2.548,0.809
			c-1.605,0.188-2.87-0.005-3.789-0.574C161.929,85.973,161.277,85.044,160.892,83.761z"/>
	</g>
	<g display="inline">
		<g>
			<g>
				<path fill="none" d="M79.454,6.804c-2.552,3.098-6.925,11.663-5.284,15.672c1.458,3.645,9.111,4.556,12.209,3.28
					c5.648-2.187,10.205-11.845,5.648-16.947c-2.368-2.733-8.929-5.649-12.392-3.827"/>
				<path d="M78.232,5.948c-2.941,3.773-8.024,12.205-5.41,17.168c2.597,4.927,10.347,5.732,14.997,3.625
					c5.491-2.488,8.662-10.122,7.099-15.762c-1.639-5.906-10.492-9.507-15.92-7.346c-1.788,0.711-0.501,3.406,1.28,2.696
					c4.652-1.852,11.347,2.229,12.095,6.995c0.708,4.515-3.188,10.35-7.606,11.336c-3.885,0.868-9.753-0.498-9.397-5.282
					c0.304-4.104,2.828-8.538,5.309-11.719C81.862,6.139,79.412,4.435,78.232,5.948L78.232,5.948z"/>
			</g>
		</g>
		<g>
			<g>
				<path fill="none" d="M100.121,3.803c-2.552,3.098-6.925,11.663-5.284,15.672c1.458,3.645,9.111,4.556,12.209,3.28
					c5.648-2.187,10.205-11.845,5.648-16.947c-2.368-2.733-8.929-5.649-12.392-3.827"/>
				<path d="M98.898,2.947c-2.941,3.771-8.024,12.205-5.41,17.168c2.597,4.927,10.347,5.732,14.997,3.625
					c5.491-2.488,8.662-10.122,7.099-15.762c-1.639-5.906-10.492-9.507-15.92-7.346c-1.788,0.711-0.501,3.406,1.28,2.696
					c4.652-1.852,11.347,2.229,12.095,6.995c0.708,4.515-3.188,10.35-7.606,11.336c-3.885,0.868-9.753-0.498-9.397-5.282
					c0.304-4.104,2.828-8.538,5.309-11.719C102.529,3.138,100.078,1.434,98.898,2.947L98.898,2.947z"/>
			</g>
		</g>
		<g>
			<g>
				<path fill="none" d="M119.455,6.804c-2.552,3.098-6.924,11.663-5.284,15.672c1.458,3.645,9.111,4.556,12.209,3.28
					c5.648-2.187,10.205-11.845,5.648-16.947c-2.368-2.733-8.929-5.649-12.392-3.827"/>
				<path d="M118.232,5.948c-2.941,3.773-8.024,12.205-5.41,17.168c2.597,4.927,10.347,5.732,14.997,3.625
					c5.491-2.488,8.662-10.122,7.099-15.762c-1.639-5.906-10.492-9.507-15.92-7.346c-1.788,0.711-0.501,3.406,1.28,2.696
					c4.652-1.852,11.347,2.229,12.095,6.995c0.708,4.515-3.188,10.35-7.606,11.336c-3.885,0.868-9.753-0.498-9.397-5.282
					c0.304-4.104,2.828-8.538,5.309-11.719C121.863,6.139,119.412,4.435,118.232,5.948L118.232,5.948z"/>
			</g>
		</g>
		<g>
			<g>
				<path fill="none" d="M83.403,27.534C81.07,32.867,80.736,40.2,82.736,45.2"/>
				<path d="M82.003,27.016c-2.424,5.96-2.822,12.744-0.615,18.825c0.656,1.807,3.348,0.515,2.696-1.281
					c-1.931-5.316-1.386-11.334,0.718-16.508C85.53,26.263,82.726,25.238,82.003,27.016L82.003,27.016z"/>
			</g>
		</g>
		<g>
			<g>
				<path fill="none" d="M82.736,45.2c-5.333,1.667-7,10-9.333,14c1.667,0.667,18.333,0.667,20.667-2
					C97.403,53.534,86.736,46.2,82.736,45.2"/>
				<path d="M82.096,43.852c-6.021,2.376-7.142,9.394-9.915,14.492c-0.429,0.788-0.3,1.953,0.704,2.256
					c2.935,0.883,6.504,0.508,9.512,0.381c3.71-0.158,8.774-0.016,12.017-2.16c7.297-4.825-7.318-13.888-11.158-15.021
					c-1.84-0.542-2.882,2.255-1.036,2.8c2.738,0.807,5.153,2.478,7.374,4.226c1.308,1.03,2.516,2.271,3.328,3.733
					c1.049,1.888-1.271,2.297-2.544,2.593c-3.194,0.74-6.591,0.849-9.854,0.92c-2.035,0.044-4.619,0.324-6.6-0.272
					c0.235,0.752,0.469,1.505,0.704,2.257c2.438-4.481,3.519-11.444,8.752-13.509C85.167,45.842,83.879,43.148,82.096,43.852
					L82.096,43.852z"/>
			</g>
		</g>
		<g>
			<g>
				<path fill="none" d="M79.736,34.534c-7-3-10.333-5.333-13.667-12.333"/>
				<path d="M80.254,33.134c-5.943-2.576-9.956-5.669-12.836-11.574c-0.842-1.727-3.542-0.452-2.696,1.281
					c3.223,6.607,7.846,10.209,14.497,13.093C80.99,36.701,82.011,33.896,80.254,33.134L80.254,33.134z"/>
			</g>
		</g>
		<g>
			<g>
				<path fill="none" d="M124.736,28.867c1,4.333-1.667,8.667-1.333,13.333c0.667,5.333-0.653,12.526,1.347,17.858"/>
				<path d="M123.267,29.126c0.709,4.954-1.675,9.678-1.205,14.703c0.524,5.593-0.516,11.018,1.217,16.489
					c0.573,1.807,3.52,1.312,2.939-0.52c-1.566-4.942-0.927-9.964-1.154-15.054c-0.243-5.464,1.91-10.759,1.142-16.138
					C125.933,26.701,122.995,27.225,123.267,29.126L123.267,29.126z"/>
			</g>
		</g>
		<g>
			<g>
				<path fill="none" d="M104.736,24.533c-2.333,9.667,1.333,24.667,2.667,34"/>
				<path d="M103.25,24.393c-2.395,11.331,1.013,23.199,2.683,34.4c0.284,1.905,3.223,1.382,2.939-0.52
					c-1.634-10.954-4.99-22.527-2.651-33.601C106.62,22.79,103.643,22.534,103.25,24.393L103.25,24.393z"/>
			</g>
		</g>
		<g>
			<g>
				<path fill="none" d="M82.737,34.534c3-2,8.999-6.333,12.333-8"/>
				<path d="M83.702,35.672c3.949-2.651,7.771-5.602,12.008-7.791c1.704-0.88,0.434-3.582-1.281-2.696
					c-4.463,2.306-8.496,5.418-12.657,8.21C80.176,34.467,82.12,36.734,83.702,35.672L83.702,35.672z"/>
			</g>
		</g>
		<g>
			<g>
				<path fill="none" d="M125.736,38.867c7-1.333,13-6.333,19-9.667"/>
				<path d="M125.996,40.336c7.262-1.614,13.042-6.17,19.381-9.788c1.658-0.947,0.395-3.653-1.281-2.696
					c-6.067,3.463-11.667,8-18.619,9.545C123.604,37.813,124.115,40.754,125.996,40.336L125.996,40.336z"/>
			</g>
		</g>
		<g>
			<g>
				<path fill="none" d="M123.403,39.2c-3-2.333-7.667-7-9.667-9.667"/>
				<path d="M124.259,37.978c-3.439-2.719-6.715-5.926-9.385-9.41c-1.171-1.528-3.445,0.405-2.276,1.931
					c2.821,3.682,6.315,7.05,9.949,9.923C124.06,41.618,125.763,39.167,124.259,37.978L124.259,37.978z"/>
			</g>
		</g>
		<g>
			<g>
				<path fill="none" d="M103.403,30.867c-3.333,2.333-7.333,6.667-9.667,9.667"/>
				<path d="M102.438,29.729c-3.791,2.727-7.046,6.292-9.923,9.949c-1.191,1.516,1.259,3.219,2.444,1.712
					c2.729-3.468,5.815-6.799,9.41-9.385C105.93,30.881,103.992,28.61,102.438,29.729L102.438,29.729z"/>
			</g>
		</g>
	</g>
	<g display="inline">
		<path fill="#FFFFFF" stroke="#000000" stroke-width="2" stroke-linecap="round" stroke-linejoin="round" d="M22.664,14.102
			c-6.376,7.535-5.71,33.82-0.439,36.455c4.483-0.034,10.741-0.503,19.352-0.709c7.703-0.185,12.164-0.29,18.422-0.169
			c4.831-3.514,2.196-32.942-2.636-36.016C52.531,10.589,27.496,8.393,22.664,14.102z"/>
		<path fill="#FFFFFF" stroke="#000000" stroke-width="2" stroke-linecap="round" stroke-linejoin="round" d="M26.275,17.66
			c-5.071,5.994-4.542,26.901-0.349,28.998c2.212,1.106,9.388,1.628,16.237,1.465c6.127-0.147,11.994-0.843,13.81-2.163
			c3.843-2.795,1.747-26.204-2.096-28.649C50.033,14.866,30.119,13.118,26.275,17.66z"/>
		<path fill="#FFFFFF" stroke="#000000" stroke-width="2" stroke-linecap="round" stroke-linejoin="round" d="M20.094,51.953
			c-1.853,1.846-1.25,9.806,3.437,11.259c4.688,1.453,38.12,0.363,41.557-2.542c3.437-2.906-1.875-11.259-5-11.259
			S22.282,49.774,20.094,51.953z"/>
	</g>
</g>
<path fill="none" stroke="#000000" stroke-width="2" stroke-linecap="round" stroke-linejoin="round" d="M0,68.541
	c0,0,18.542-10.015,84.689-10.015c66.148,0,85.062,10.015,85.062,10.015"/>
<g enable-background="new    ">
	<path fill="#ED1C24" d="M10.283,90.83c-2.624,0-3.83-2.137-4.095-4.422c-0.225-1.937-0.45-3.873-0.675-5.81
		c-0.257-2.214-0.514-4.428-0.771-6.642c-0.236-2.029-0.499-3.982,1.359-5.454c0.482-0.377,1.012-0.645,1.588-0.809
		c0.629-0.175,1.23-0.216,1.798-0.131c0.76,0.116,1.446,0.459,2.005,0.992c0.989,0.933,1.124,2.221,1.309,3.494
		c2.281-1.837,5.843-0.968,6.665,1.955c0.348,1.236,0.065,2.455-0.577,3.535c-0.395,0.664-0.861,1.29-1.337,1.896
		c-0.242,0.309,1.208,1.354,1.519,1.631c1.037,0.924,2.28,1.754,2.875,3.057c0.62,1.354,0.39,2.963-0.505,4.14
		c-2.01,2.641-5.149,1.473-7.185-0.395C13.722,89.593,12.093,90.815,10.283,90.83z"/>
</g>
<g enable-background="new    ">
	<path fill="#F7931E" d="M20.43,89.833c-4.615,0-4.382-5.948-4.746-9.14c-0.22-1.926-0.989-4.184-0.444-6.091
		c0.108-0.379,0.425-0.697,0.163-1.01c-0.307-0.366-0.548-0.784-0.726-1.228c-0.168-0.42-0.386-0.971-0.344-1.439
		c-0.015-1.671,0.654-2.709,1.217-3.285c0.748-0.769,1.68-1.229,2.691-1.328c0.143-0.013,0.271-0.019,0.4-0.019
		c0.88,0,1.718,0.269,2.489,0.801c0.683,0.472,1.542,1.368,1.778,2.972c0.12,0.68,0.087,1.387-0.119,2.047
		c-0.1,0.321-0.241,0.63-0.419,0.916c0.223,0.269,0.417,0.562,0.571,0.875c0.294,0.602,0.369,1.227,0.444,1.878
		c0.188,1.621,0.391,3.238,0.603,4.856c0.199,1.521,0.364,3.046,0.535,4.57C24.787,87.554,22.794,89.833,20.43,89.833z"/>
</g>
<g enable-background="new    ">
	<path fill="#009245" d="M28.577,89.074c-5.573,0-8.519-5.523-7.625-10.531c0.443-2.48,1.828-4.711,4.004-6.025
		c0.473-0.285,0.974-0.524,1.49-0.72c0.376-0.142,1.489-0.261,1.446-0.644c-0.117-0.978-0.231-2.051,0.006-3.021
		c0.217-0.831,0.667-1.55,1.3-2.078c0.581-0.484,1.272-0.798,2-0.907c0.731-0.11,1.458-0.016,2.164,0.268
		c0.749,0.307,1.384,0.823,1.848,1.499l0.09,0.135c0.333,0.421,0.549,0.947,0.605,1.507c0.312,2.515,0.604,5.031,0.887,7.549
		c0.143,1.271,0.288,2.54,0.434,3.811c0.072,0.63,0.053,1.296,0.369,1.846c0.296,0.517,0.5,1.088,0.568,1.681
		c0.225,1.976-1.086,3.846-3.019,4.306c-0.445,0.105-0.905,0.142-1.361,0.104c-0.683-0.057-0.799-0.062-1.408,0.227
		C31.175,88.646,29.919,89.074,28.577,89.074z"/>
</g>
<g enable-background="new    ">
	<path fill="#0071BC" d="M38.711,88.489c-2.548,0-4.914-1.24-6.71-2.982c-0.467-0.453-0.737-1.3-0.854-1.905
		c-0.107-0.553-0.123-0.973,0.282-1.394c0.313-0.326,0.661-0.618,0.595-1.111c-0.038-0.288-0.238-0.779-0.02-1.039
		c-0.294-0.401-0.335-0.954-0.371-1.433c-0.039-0.524-0.039-1.062-0.217-1.564c-0.173-0.488-0.509-0.922-0.517-1.459
		c-0.035-2.43,2.24-4.846,4.43-5.545c2.169-0.692,5.289-0.523,7.145,0.926c0.873,0.682,1.492,1.708,1.67,2.803
		c0.107,0.657,0.061,1.335-0.158,1.965c-0.11,0.318-0.263,0.621-0.45,0.901c0.262,0.243,0.499,0.513,0.712,0.799
		C47.612,81.962,44.297,88.489,38.711,88.489z"/>
</g>
<g enable-background="new    ">
	<path fill="#F7931E" d="M54.829,88.087c-5.168,0-8.23-4.963-7.896-9.68c0.345-4.415,3.685-8.727,8.336-8.908
		c5.097-0.199,8.155,4.425,8.052,9.126C63.223,83.076,59.62,88.087,54.829,88.087z"/>
</g>
<g enable-background="new    ">
	<path fill="#93278F" d="M62.547,87.474c-3.141,0.012-4.13-2.547-4.45-5.218c-0.213-1.782,0.015-3.619-0.368-5.364
		c-0.328-1.495-0.953-3.136-0.375-4.643c0.447-1.164,1.466-2.082,2.66-2.428c0.671-0.195,1.389-0.209,2.072-0.064
		c0.695,0.148,1.535-0.448,2.248-0.637c2.586-0.682,5.583-0.019,7.2,2.238c0.943,1.317,1.167,2.962,1.349,4.531
		c0.168,1.454,0.337,2.908,0.505,4.362c0.136,1.169,0.4,2.343,0.061,3.503c-0.949,3.246-5.488,4.23-7.329,1.21
		C65.553,86.407,64.108,87.447,62.547,87.474z"/>
</g>
<g enable-background="new    ">
	<path fill="#0071BC" d="M83.171,86.871c-8.508,0-10.241-11.475-4.922-16.515c2.427-2.299,6.093-2.515,9.028-1.038
		c1.45,0.729,2.565,1.938,2.81,3.586c0.267,1.804-0.792,3.579-2.447,4.298c2.542,0.812,3.311,3.718,2.147,5.95
		C88.638,85.484,85.673,86.871,83.171,86.871z"/>
</g>
<g enable-background="new    ">
	<path fill="#ED1C24" d="M84.297,77.574c0.552-4.558,4.128-8.874,9.021-8.621c4.918,0.254,7.595,4.966,7.332,9.505
		c-0.25,4.322-3.841,9.079-8.478,9.079c-5.166,0-8.23-4.965-7.895-9.68"/>
</g>
<g enable-background="new    ">
	<path fill="#009245" d="M99.189,87.465c-5.336,0-3.672-6.777-3.872-10.088c-0.049-0.821-0.287-1.409-0.719-2.09
		c-0.603-0.948-0.745-2.26-0.433-3.329c0.338-1.156,1.242-2.106,2.345-2.569c0.631-0.259,1.312-0.365,1.991-0.302
		c0.294,0.027,0.585,0.083,0.866,0.173c0.422-0.165,0.86-0.289,1.307-0.369c0.678-0.12,1.372-0.138,2.055-0.056
		c0.612,0.073,1.579,0.588,2.053,0.24c1.179-0.866,2.646-1.236,4.099-1.132c2.606,0.188,5.256,1.832,6.3,4.287
		c0.477,1.121,0.521,2.405,0.659,3.602c0.172,1.482,0.345,2.965,0.517,4.447c0.178,1.526,0.127,3.005-0.996,4.209
		c-1.588,1.702-4.377,1.728-5.985,0.043c-1.385,2.148-4.729,2.926-6.497,0.782C102.128,86.608,100.688,87.465,99.189,87.465z"/>
</g>
<g enable-background="new    ">
	<path fill="#93278F" d="M116.926,93.802c-2.165,0-3.903-1.705-4.146-3.806c-0.096-0.822-0.191-1.645-0.287-2.467
		c-0.359-3.097-0.719-6.194-1.078-9.291c-0.213-1.833-0.89-4.133-0.22-5.939c0.411-1.111,1.296-2.024,2.401-2.459
		c0.601-0.236,1.259-0.327,1.901-0.262c0.334,0.034,0.664,0.11,0.979,0.225c0.37-0.161,0.759-0.288,1.149-0.391
		c2.632-0.695,5.369,0.184,7.235,2.138c3.417,3.577,3.534,10.012-0.447,13.221c-0.911,0.735-1.974,1.285-3.091,1.629
		c-0.712,0.219-0.616,0.169-0.544,0.879c0.074,0.725,0.118,1.453,0.124,2.183C120.919,91.777,119.393,93.802,116.926,93.802z"/>
</g>
<g enable-background="new    ">
	<path fill="#0071BC" d="M129.459,87.27c-2.391,0-4.562-1.272-5.97-3.164c-0.732-0.984-1.23-2.124-1.477-3.325
		c-0.262-1.279-0.109-2.595-0.321-3.885c-0.317-1.941-0.62-3.932,0.916-5.499c1.82-1.859,5.165-1.362,6.446,0.886
		c0.932-2.641,4.04-3.832,6.334-2.033c2.547,1.996,1.269,5.646,2.117,8.359c0.395,1.259,1.419,2.053,1.603,3.428
		c0.185,1.373-0.273,2.831-1.348,3.739c-0.967,0.818-2.311,1.051-3.525,0.756c-0.333-0.081-0.656-0.203-0.959-0.363
		c-0.414,0.252-0.85,0.466-1.303,0.636C131.17,87.104,130.318,87.27,129.459,87.27z"/>
</g>
<g enable-background="new    ">
	<path fill="#F7931E" d="M140.406,87.978c-2.65,0-3.933-1.938-4.268-4.341c-0.104-0.746-0.164-1.501-0.253-2.25
		c-0.044-0.368-0.147-0.338-0.452-0.436c-0.196-0.063-0.404-0.854-0.499-1.046c-0.12-0.241-0.354-0.532-0.427-0.755
		c-0.103-0.317,0.071-0.876-0.257-1.092c-0.939-0.608-1.629-1.586-1.816-2.697c-0.193-1.148,0.151-2.312,0.892-3.2
		c0.361-0.436,0.796-0.812,1.296-1.08c0-0.556-0.084-1.115-0.083-1.674c0.002-0.916,0.167-1.624,0.519-2.219
		c0.71-1.254,1.849-1.995,3.213-2.09c0.102-0.007,0.194-0.01,0.285-0.01c1.164,0,2.256,0.498,3.081,1.402
		c0.181,0.19,0.348,0.401,0.496,0.628c0.285,0.432,0.463,0.906,0.523,1.403c0.07,0.486-0.047,1.312,0.476,1.359
		c0.481,0.043,0.956,0.166,1.388,0.385c0.915,0.461,1.63,1.299,1.995,2.249c0.812,2.104-0.195,4.264-2.208,5.184
		c-0.185,0.084-0.374,0.156-0.568,0.217c0.032,0.3,0.064,0.599,0.098,0.898c0.064,0.589,0.135,1.178,0.21,1.766
		c0.151,1.186,0.493,2.386,0.4,3.587C144.281,86.311,142.585,87.978,140.406,87.978z"/>
</g>
<g enable-background="new    ">
	<path fill="#ED1C24" d="M147.728,88.504c-5.131,0-8.438-4.786-8.207-9.59c0.113-2.356,1.007-4.379,2.79-5.94
		c1.884-1.649,4.509-2.774,7.043-2.606c2.276,0.15,4.34,1.521,5.368,3.559c0.519,1.026,0.742,2.185,0.642,3.329
		c-0.045,0.512-0.166,1.015-0.357,1.492c-0.182,0.452,0.059,0.371,0.391,0.656c0.229,0.197,0.435,0.422,0.608,0.669
		c1.323,1.881,0.538,4.4-1.115,5.79C153.011,87.441,150.177,88.504,147.728,88.504z"/>
</g>
<g enable-background="new    ">
	<path fill="#009245" d="M154.77,89.732c-2.279,0-3.866-1.762-4.117-3.92c-0.028-0.243-0.286-1.185-0.11-1.354
		c0.394-0.381,0.786-0.761,1.18-1.141c0.358-0.346,0.716-0.691,1.073-1.037c0.149-0.145,0.16-0.763,0.199-0.958
		c0.208-1.045,0.416-2.091,0.624-3.136c-0.258-0.253-2.089,0.307-2.421,0.364c-0.693,0.12-2.232,0.659-1.537-0.632
		c0.267-0.494,0.804-1.098,0.389-1.655c-0.324-0.438-1.039-0.688-1.206-1.23c-0.194-0.632,0.759-1.595,1.177-1.956
		c0.702-0.605,1.594-0.972,2.521-1.011c0.399-0.018,0.797,0.025,1.188,0.105c0.403,0.082,0.817-0.346,1.18-0.536
		c0.877-0.46,1.843-0.763,2.834-0.828c1.883-0.125,3.998,0.595,5.243,2.059c2.801,3.292-0.752,8.452-4.795,6.466
		c0.183,1.574,0.365,3.148,0.548,4.723c0.105,0.912,0.222,1.789-0.046,2.696C158.231,88.509,156.578,89.732,154.77,89.732z"/>
</g>
<g enable-background="new    ">
	<path fill="#0071BC" d="M164.843,90.486c-3.694,0-9.448-3.233-7.193-7.691c0.089-0.176,0.191-0.345,0.307-0.505
		c0.272-0.379,0.025-0.432-0.189-0.81c-0.346-0.606-0.574-1.27-0.694-1.956c-0.223-1.28-0.07-2.617,0.45-3.81
		c1.03-2.356,3.211-3.805,5.748-4.002c2.093-0.163,4.752,0.286,6.109,2.044c0.728,0.948,1.099,2.155,0.903,3.347
		c-0.09,0.553-0.302,1.08-0.612,1.546c0.498,0.462,0.909,1.018,1.238,1.611C173.44,84.832,169.994,90.486,164.843,90.486z"/>
</g>
<g>
	<g>
		<g>
			<path fill="none" d="M78.454,6.806c-2.552,3.098-6.925,11.661-5.284,15.671c1.458,3.646,9.111,4.557,12.209,3.279
				c5.648-2.187,10.205-11.844,5.648-16.946c-2.368-2.732-8.929-5.648-12.392-3.826"/>
			<path d="M77.232,5.949c-2.941,3.772-8.024,12.205-5.41,17.168c2.597,4.927,10.347,5.73,14.997,3.625
				c5.491-2.488,8.662-10.121,7.099-15.763c-1.639-5.905-10.492-9.506-15.92-7.346c-1.788,0.711-0.501,3.405,1.28,2.695
				c4.652-1.852,11.347,2.229,12.095,6.995c0.708,4.515-3.188,10.35-7.606,11.337c-3.885,0.867-9.753-0.498-9.397-5.283
				c0.304-4.104,2.828-8.537,5.309-11.719C80.862,6.14,78.412,4.437,77.232,5.949L77.232,5.949z"/>
		</g>
	</g>
	<g>
		<g>
			<path fill="none" d="M99.121,3.806c-2.552,3.098-6.925,11.661-5.284,15.671c1.458,3.646,9.111,4.556,12.209,3.279
				c5.648-2.187,10.205-11.845,5.648-16.946c-2.368-2.733-8.929-5.648-12.392-3.826"/>
			<path d="M97.898,2.948c-2.941,3.771-8.024,12.205-5.41,17.169c2.597,4.926,10.347,5.73,14.997,3.625
				c5.491-2.488,8.662-10.121,7.099-15.763c-1.639-5.905-10.492-9.508-15.92-7.347c-1.788,0.712-0.501,3.405,1.28,2.696
				c4.652-1.852,11.347,2.229,12.095,6.994c0.708,4.516-3.188,10.35-7.606,11.337c-3.885,0.868-9.753-0.497-9.397-5.282
				c0.304-4.104,2.828-8.538,5.309-11.719C101.529,3.14,99.078,1.437,97.898,2.948L97.898,2.948z"/>
		</g>
	</g>
	<g>
		<g>
			<path fill="none" d="M118.455,6.806c-2.552,3.098-6.924,11.661-5.284,15.671c1.458,3.646,9.111,4.557,12.209,3.279
				c5.648-2.187,10.205-11.844,5.648-16.946c-2.368-2.732-8.929-5.648-12.392-3.826"/>
			<path d="M117.232,5.949c-2.941,3.772-8.024,12.205-5.41,17.168c2.597,4.927,10.347,5.73,14.997,3.625
				c5.491-2.488,8.662-10.121,7.099-15.763c-1.639-5.905-10.492-9.506-15.92-7.346c-1.788,0.711-0.501,3.405,1.28,2.695
				c4.652-1.852,11.347,2.229,12.095,6.995c0.708,4.515-3.188,10.35-7.606,11.337c-3.885,0.867-9.753-0.498-9.397-5.283
				c0.304-4.104,2.828-8.537,5.309-11.719C120.863,6.14,118.412,4.437,117.232,5.949L117.232,5.949z"/>
		</g>
	</g>
	<g>
		<g>
			<path fill="none" d="M82.403,27.535c-2.333,5.332-2.667,12.666-0.667,17.666"/>
			<path d="M81.003,27.017c-2.424,5.961-2.822,12.743-0.615,18.825c0.656,1.809,3.348,0.516,2.696-1.28
				c-1.931-5.315-1.386-11.334,0.718-16.509C84.53,26.265,81.726,25.239,81.003,27.017L81.003,27.017z"/>
		</g>
	</g>
	<g>
		<g>
			<path fill="none" d="M81.736,45.201c-5.333,1.666-7,10-9.333,14c1.667,0.666,18.333,0.666,20.667-2
				C96.403,53.535,85.736,46.201,81.736,45.201"/>
			<path fill="#ED1C24" d="M81.096,43.854c-6.021,2.375-7.142,9.394-9.915,14.492c-0.429,0.786-0.3,1.952,0.704,2.256
				c2.935,0.884,6.504,0.509,9.512,0.38c3.71-0.156,8.774-0.016,12.017-2.158c7.297-4.826-7.318-13.89-11.158-15.021
				c-1.84-0.542-2.882,2.256-1.036,2.802c2.738,0.808,5.153,2.478,7.374,4.227c1.308,1.029,2.516,2.271,3.328,3.732
				c1.049,1.89-1.271,2.297-2.544,2.594c-3.194,0.74-6.591,0.849-9.854,0.921c-2.035,0.044-4.619,0.323-6.6-0.273
				c0.235,0.753,0.469,1.505,0.704,2.257c2.438-4.479,3.519-11.442,8.752-13.509C84.167,45.844,82.879,43.149,81.096,43.854
				L81.096,43.854z"/>
		</g>
	</g>
	<g>
		<g>
			<path fill="none" d="M78.736,34.535c-7-3-10.333-5.334-13.667-12.334"/>
			<path d="M79.254,33.135c-5.943-2.575-9.956-5.669-12.836-11.574c-0.842-1.727-3.542-0.451-2.696,1.281
				c3.223,6.607,7.846,10.209,14.497,13.093C79.99,36.702,81.011,33.897,79.254,33.135L79.254,33.135z"/>
		</g>
	</g>
	<g>
		<g>
			<path fill="none" d="M123.736,28.867c1,4.334-1.667,8.668-1.333,13.334c0.667,5.334-0.653,12.523,1.347,17.857"/>
			<path d="M122.267,29.127c0.709,4.953-1.675,9.679-1.205,14.703c0.524,5.593-0.516,11.019,1.217,16.489
				c0.573,1.807,3.52,1.312,2.939-0.521c-1.566-4.94-0.927-9.964-1.154-15.055c-0.243-5.464,1.91-10.758,1.142-16.139
				C124.933,26.701,121.995,27.226,122.267,29.127L122.267,29.127z"/>
		</g>
	</g>
	<g>
		<g>
			<path fill="none" d="M103.736,24.534c-2.333,9.667,1.333,24.667,2.667,34.001"/>
			<path fill="#0071BC" d="M102.25,24.394c-2.395,11.332,1.013,23.198,2.683,34.4c0.284,1.905,3.223,1.382,2.939-0.52
				c-1.634-10.953-4.99-22.527-2.651-33.602C105.62,22.791,102.643,22.535,102.25,24.394L102.25,24.394z"/>
		</g>
	</g>
	<g>
		<g>
			<path fill="none" d="M81.737,34.535c3-2,8.999-6.334,12.333-8"/>
			<path d="M82.702,35.674c3.949-2.65,7.771-5.603,12.008-7.791c1.704-0.881,0.434-3.582-1.281-2.696
				c-4.463,2.308-8.496,5.418-12.657,8.212C79.176,34.468,81.12,36.735,82.702,35.674L82.702,35.674z"/>
		</g>
	</g>
	<g>
		<g>
			<path fill="none" d="M124.736,38.867c7-1.332,13-6.332,19-9.666"/>
			<path fill="#009245" d="M124.996,40.338c7.262-1.614,13.042-6.17,19.381-9.789c1.658-0.946,0.395-3.65-1.281-2.694
				c-6.067,3.464-11.667,8-18.619,9.546C122.604,37.813,123.115,40.755,124.996,40.338L124.996,40.338z"/>
		</g>
	</g>
	<g>
		<g>
			<path fill="none" d="M122.403,39.201c-3-2.333-7.667-7-9.667-9.666"/>
			<path fill="#009245" d="M123.259,37.979c-3.439-2.72-6.715-5.927-9.385-9.409c-1.171-1.527-3.445,0.405-2.276,1.932
				c2.821,3.682,6.315,7.051,9.949,9.924C123.06,41.619,124.763,39.168,123.259,37.979L123.259,37.979z"/>
		</g>
	</g>
	<g>
		<g>
			<path fill="none" d="M102.403,30.867c-3.333,2.334-7.333,6.668-9.667,9.668"/>
			<path fill="#0071BC" d="M101.438,29.729c-3.791,2.729-7.046,6.294-9.923,9.949c-1.191,1.517,1.259,3.222,2.444,1.713
				c2.729-3.47,5.815-6.8,9.41-9.386C104.93,30.882,102.992,28.61,101.438,29.729L101.438,29.729z"/>
		</g>
	</g>
</g>
<g>
	<path fill="#FFFFFF" stroke="#000000" stroke-width="2" stroke-linecap="round" stroke-linejoin="round" d="M21.664,14.104
		c-6.376,7.535-5.71,33.819-0.439,36.456c4.483-0.034,10.741-0.504,19.352-0.709c7.703-0.187,12.164-0.291,18.422-0.171
		c4.831-3.514,2.196-32.94-2.636-36.016C51.531,10.59,26.496,8.394,21.664,14.104z"/>
	<path fill="#FFFFFF" stroke="#000000" stroke-width="2" stroke-linecap="round" stroke-linejoin="round" d="M25.275,17.661
		c-5.071,5.992-4.542,26.899-0.349,28.998c2.212,1.104,9.388,1.628,16.237,1.465c6.127-0.146,11.994-0.844,13.81-2.163
		c3.843-2.795,1.747-26.203-2.096-28.649C49.033,14.867,29.119,13.119,25.275,17.661z"/>
	<path fill="#FFFFFF" stroke="#000000" stroke-width="2" stroke-linecap="round" stroke-linejoin="round" d="M19.094,51.954
		c-1.853,1.847-1.25,9.806,3.437,11.259c4.688,1.453,38.12,0.363,41.557-2.541c3.437-2.905-1.875-11.26-5-11.26
		S21.282,49.774,19.094,51.954z"/>
</g>
<path fill="#0071BC" d="M103.704,30.396c3.791,2.729,7.046,6.293,9.923,9.949c1.191,1.517-1.259,3.222-2.444,1.713
	c-2.729-3.47-5.815-6.8-9.41-9.386C100.211,31.548,102.149,29.276,103.704,30.396L103.704,30.396z"/>
<g id="Layer_2_1_">
	<g>
		<g enable-background="new    ">
			<path fill="#FFFFFF" d="M11.435,87.844c-1.159,1.061-2.539,0.207-2.7-1.174c-0.082-0.703-0.163-1.406-0.245-2.109
				c-0.293-2.523-0.586-5.047-0.879-7.57c-0.198-1.705-0.396-3.411-0.594-5.117c-0.178-1.533,2.454-2.73,3.042-1.034
				c0.359,1.035,0.379,2.308,0.515,3.394c0.162,1.299,0.299,2.602,0.429,3.903c0.978-0.91,1.896-1.958,2.587-3.104
				c0.597-0.989,1.752-2.086,2.938-1.156c1.949,1.553-1.531,4.851-2.636,5.924c1.391,1.197,2.734,2.448,4.11,3.662
				c0.938,0.843,2.63,2.025,1.354,3.396c-1.275,1.369-3.084-0.456-3.978-1.386c-1.22-1.256-2.583-2.436-3.938-3.544
				c0.108,0.926,0.216,1.853,0.323,2.778C11.879,85.694,12.286,87.06,11.435,87.844C11.114,88.138,11.756,87.548,11.435,87.844z"/>
		</g>
		<g enable-background="new    ">
			<path fill="#FFFFFF" d="M16.833,70.903c-0.021-2.341,3.247-2.896,3.603-0.474c0.195,1.106-0.579,2.136-1.732,2.167
				C17.645,72.626,17.073,71.822,16.833,70.903z M22.051,85.487c0.019,1.115-1.129,2.288-2.259,1.692
				c-1.253-0.662-1.115-2.496-1.268-3.696c-0.18-1.407-0.318-2.818-0.493-4.226c-0.149-1.205-0.757-2.846-0.371-4.03
				c0.314-0.964,1.554-1.694,2.439-0.958c0.994,0.826,0.866,2.326,1.002,3.501C21.401,80.345,21.734,82.916,22.051,85.487z"/>
		</g>
		<g enable-background="new    ">
			<path fill="#FFFFFF" d="M35.219,82.692c0.71,0.941,0.583,2.429-0.779,2.648c-0.611,0.099-1.166-0.124-1.641-0.5
				c-0.45,0.405-0.955,0.724-1.501,0.982c-2.417,1.142-5.135,0.912-6.843-1.34c-1.604-2.115-1.544-5.542-0.226-7.785
				c1.339-2.279,3.99-3.177,6.523-3.043c-0.15-0.925-0.27-1.856-0.377-2.787c-0.092-0.772-0.304-1.842,0.126-2.548
				c0.4-0.655,1.23-0.866,1.923-0.586c0.956,0.391,1.024,1.326,1.133,2.219c0.261,2.141,0.508,4.282,0.75,6.425
				c0.113,1.008,0.228,2.015,0.343,3.021C34.752,80.274,34.628,82.044,35.219,82.692C35.576,83.166,35.158,82.626,35.219,82.692z
				 M31.389,81.668c0.198-0.396,0.318-0.249,0.257-0.778c-0.056-0.482-0.112-0.966-0.168-1.448c-0.098-0.844-0.203-1.687-0.32-2.527
				c-1.499-0.129-3.457,0.114-4.276,1.568c-0.685,1.214-0.775,3.704,0.617,4.49C28.797,83.72,30.589,82.799,31.389,81.668
				C31.417,81.611,30.991,82.229,31.389,81.668z"/>
		</g>
		<g enable-background="new    ">
			<path fill="#FFFFFF" d="M33.801,83.712c-0.536-1.094-0.096-2.535,1.279-2.55c0.579-0.018,1.04,0.358,1.457,0.712
				c0.519,0.439,1.139,0.679,1.808,0.768c0.542,0.073,1.168,0.151,1.466-0.421c0.276-0.531,0.041-1.184-0.454-1.469
				c-0.561-0.322-1.225-0.289-1.843-0.396c-0.658-0.115-1.304-0.303-1.924-0.549c-2.517-0.985-2.865-4.268-1.218-6.187
				c0.913-1.062,2.199-1.453,3.57-1.432c1.18,0.019,2.836,0.229,3.493,1.348c0.561,0.956,0.161,2.143-0.996,2.278
				c-1.15,0.132-2.324-0.802-3.468-0.212c-0.392,0.149-0.529,0.898-0.241,1.184c0.438,0.433,1.405,0.464,1.975,0.556
				c1.299,0.208,2.707,0.481,3.538,1.6c1.582,2.122,0.92,5.424-1.509,6.607c-1.182,0.575-2.58,0.544-3.812,0.149
				C35.945,85.386,34.314,84.671,33.801,83.712z"/>
		</g>
		<g enable-background="new    ">
			<path fill="#FFFFFF" d="M49.435,78.425c0.384-3.159,2.677-6.422,6.129-6.432c3.781-0.01,5.535,3.84,5.223,7.168
				c-0.275,2.939-2.864,6.556-6.118,6.423c-1.677-0.069-3.323-1.072-4.216-2.478C49.519,81.638,49.353,80.121,49.435,78.425z
				 M52.661,78.61c-0.096,1.285,0.094,3.131,1.573,3.586c1.731,0.532,2.945-1.563,3.255-2.939c0.354-1.571-0.049-3.599-1.808-4.066
				C53.921,75.398,52.948,76.997,52.661,78.61C52.64,78.897,52.736,78.192,52.661,78.61z"/>
		</g>
		<g enable-background="new    ">
			<path fill="#FFFFFF" d="M71.129,82.477c-0.005,1.152-1.252,2.372-2.418,1.663c-1.085-0.658-0.943-2.412-1.052-3.486
				c-0.141-1.39-0.279-2.789-0.479-4.171c-0.071-0.489-0.067-1.455-0.376-1.845c-0.417-0.496-1.62,0.206-2.002,0.466
				c-1.763,1.199-1.457,2.85-1.25,4.633c0.16,1.376,1.035,4.075-0.27,4.96c-1.025,0.696-2.126,0.028-2.452-1.036
				c-0.338-1.109-0.339-2.414-0.484-3.562c-0.175-1.385-0.332-2.771-0.492-4.158c-0.123-1.058-0.662-2.656,0.324-3.442
				c0.457-0.364,1.11-0.438,1.648-0.216c0.268,0.11,0.495,0.298,0.679,0.521c0.242-0.201,0.499-0.384,0.768-0.547
				c1.223-0.739,2.75-1.119,4.161-0.777c2.196,0.533,2.707,2.464,2.935,4.438C70.622,78.104,70.876,80.29,71.129,82.477z"/>
		</g>
		<g enable-background="new    ">
			<path fill="#FFFFFF" d="M85.072,80.019c0.738-0.605,2.011-0.793,2.574,0.161c0.559,0.944-0.079,2.093-0.811,2.729
				c-1.887,1.637-4.586,1.978-6.684,0.512c-3.979-2.782-3.159-10.86,1.662-12.37c1.633-0.496,5.008-0.071,5.695,1.81
				c0.344,0.941-0.208,1.969-1.21,2.155c-1.109,0.207-1.719-0.84-2.727-0.955c-2.044-0.232-2.913,2.906-2.7,4.418
				c0.148,1.055,0.658,2.311,1.8,2.604C83.683,81.346,84.407,80.65,85.072,80.019z"/>
		</g>
		<g enable-background="new    ">
			<path fill="#FFFFFF" d="M86.779,77.875c0.382-3.159,2.678-6.424,6.13-6.433c3.782-0.01,5.534,3.841,5.223,7.169
				c-0.274,2.938-2.865,6.555-6.118,6.422c-1.677-0.067-3.323-1.072-4.216-2.478C86.864,81.087,86.697,79.572,86.779,77.875z
				 M90.004,78.061c-0.096,1.287,0.095,3.127,1.573,3.586c1.73,0.537,2.945-1.565,3.255-2.939c0.354-1.571-0.049-3.599-1.809-4.066
				C91.259,74.849,90.298,76.447,90.004,78.061C89.983,78.348,90.08,77.643,90.004,78.061z"/>
		</g>
		<g enable-background="new    ">
			<path fill="#FFFFFF" d="M103.556,75.874c0.048-1.031-1.287-1.331-2.074-1.307c-0.527,0.233-1.434,0.988-1.357,1.642
				c0.153,1.318,0.307,2.638,0.46,3.957c0.12,1.034,0.489,2.328,0.312,3.376c-0.192,1.146-1.74,1.906-2.675,1.077
				c-0.828-0.733-0.714-2.808-0.837-3.827c-0.161-1.334-0.304-2.669-0.455-4.004c-0.079-0.691-0.158-1.383-0.237-2.073
				c-0.077-0.67-0.358-1.569-0.068-2.215c0.465-1.033,1.931-1.237,2.675-0.403c1.258-0.82,2.752-1.031,4.177-0.538
				c0.32,0.111,0.629,0.254,0.923,0.423c0.373,0.215,0.464,0.533,0.782,0.156c0.378-0.444,0.802-0.888,1.301-1.197
				c1.214-0.754,2.806-0.611,4.055-0.018c1.755,0.842,2.481,2.287,2.692,4.1c0.174,1.497,0.348,2.993,0.521,4.49
				c0.123,1.057,0.605,2.733-0.44,3.463c-0.917,0.647-2.235,0.231-2.502-0.887c-0.09-0.377-0.106-0.782-0.15-1.166
				c-0.176-1.509-0.351-3.018-0.526-4.526c-0.139-1.191-0.31-3.344-2.243-2.578c-1.569,0.62-1.071,2.082-0.926,3.337
				c0.168,1.449,0.337,2.897,0.505,4.347c0.051,0.438,0.136,0.886-0.015,1.316c-0.373,1.067-2.298,1.966-2.841,0.568
				c-0.436-1.124-0.395-2.604-0.554-3.787C103.891,78.357,103.723,77.116,103.556,75.874z"/>
		</g>
		<g enable-background="new    ">
			<path fill="#FFFFFF" d="M113.422,73.612c0.174-1.027,1.143-1.848,2.206-1.458c0.477,0.173,0.562,0.688,1.007,0.397
				c0.6-0.393,1.261-0.662,1.964-0.803c2.244-0.448,4.355,0.917,5.415,2.842c1.14,2.069,1.265,4.729,0.069,6.803
				c-1.246,2.16-3.825,2.947-6.174,3.045c0.193,1.841,0.66,3.749,0.478,5.607c-0.187,1.898-2.922,1.4-3.117-0.278
				c-0.183-1.568-0.364-3.137-0.547-4.704c-0.293-2.53-0.587-5.06-0.881-7.589C113.698,76.241,113.343,74.857,113.422,73.612z
				 M117.192,76.644c-0.306,0.704,0.015,1.723,0.105,2.505c0.065,0.565,0.131,1.131,0.197,1.696c0.08,0.686,0.779,0.407,1.371,0.294
				c2.099-0.399,3.522-2.198,2.662-4.313c-0.345-0.849-0.933-1.695-1.891-1.88C118.499,74.728,117.738,75.842,117.192,76.644
				C117.15,76.74,117.375,76.374,117.192,76.644z"/>
		</g>
		<g enable-background="new    ">
			<path fill="#FFFFFF" d="M136.233,81.435c0.584,0.664,0.602,1.994-0.194,2.515c-1.026,0.67-2.079-0.27-2.727-0.999
				c-1.542,1.595-3.829,2.373-5.903,1.318c-2.251-1.145-2.916-3.398-3.21-5.723c-0.131-1.033-0.176-2.063-0.255-3.1
				c-0.081-1.068-0.088-2.565,1.327-2.7c2.653-0.252,1.939,4.351,2.213,5.966c0.16,0.947,0.417,2.166,1.355,2.651
				c1.119,0.58,2.209-0.501,2.697-1.423c0.09-0.174,0.201-0.334,0.332-0.479c-0.086-0.362-0.162-0.728-0.229-1.094
				c-0.109-0.609-0.192-1.224-0.26-1.839c-0.126-1.135-0.367-2.429,0.073-3.526c0.363-0.904,1.361-1.498,2.257-0.883
				c0.997,0.669,0.825,1.948,0.85,2.989C134.608,77.216,134.75,79.785,136.233,81.435C136.418,81.646,135.885,81.048,136.233,81.435
				z"/>
		</g>
		<g enable-background="new    ">
			<path fill="#FFFFFF" d="M136.586,76.313c-0.931-0.123-1.884-0.848-1.674-1.888c0.238-1.224,1.494-1.324,2.488-1.438
				c-0.163-1.372-1.243-4.859,0.792-5.356c2.533-0.62,2.261,3.582,2.421,4.982c0.664-0.077,1.328-0.154,1.991-0.23
				c1.233-0.144,2.293,1.562,1.375,2.536c-0.55,0.573-1.244,0.682-1.995,0.782c-0.332,0.045-0.664,0.086-0.997,0.125
				c0.056,0.483,0.11,0.967,0.165,1.45c0.186,1.659,0.322,3.334,0.6,4.982c0.208,1.24,0.492,3.26-1.39,3.217
				c-1.686-0.038-1.749-1.842-1.85-3.143c-0.175-1.506-0.372-3.008-0.551-4.514c-0.018-0.154-0.146-1.625-0.229-1.617
				C137.351,76.24,136.968,76.276,136.586,76.313z"/>
		</g>
		<g enable-background="new    ">
			<path fill="#FFFFFF" d="M151.918,81.114c2.14-0.807,2.896,1.569,1.344,2.851c-1.515,1.251-3.923,2.15-5.888,2.028
				c-4.312-0.28-6.497-5.541-4.896-9.226c1.409-3.243,7.088-5.596,9.604-2.357c1.256,1.616,0.927,3.572-0.514,4.917
				c-1.554,1.451-3.676,1.989-5.562,2.845C147.872,83.862,150.238,82.139,151.918,81.114z M146.071,77.202
				c-0.819,0.596-1.024,1.481-1.05,2.445c0.874-0.387,4.878-1.486,4.722-2.791C149.544,75.169,146.804,76.679,146.071,77.202z"/>
		</g>
		<g enable-background="new    ">
			<path fill="#FFFFFF" d="M152.328,78.325c0.023-0.694-0.447-0.682-0.828-1.145c-0.362-0.441-0.508-1.036-0.305-1.58
				c0.524-1.366,2.204-1.148,3.209-0.52c0.893-0.857,2.004-1.592,3.256-1.752c1.21-0.155,3.015,0.279,3.625,1.461
				c0.496,0.959,0.093,2.359-1.108,2.463c-0.575,0.049-1.134-0.241-1.571-0.592c-0.499-0.399-1.208,0.012-1.621,0.334
				c-0.409,0.319-1.447,1.167-1.381,1.731c0.066,0.58,0.134,1.159,0.201,1.739c0.168,1.45,0.337,2.901,0.505,4.353
				c0.061,0.523,0.107,1.019-0.119,1.523c-0.528,1.177-2.301,1.155-2.861,0.015c-0.449-0.915-0.365-2.315-0.479-3.299
				c-0.165-1.419-0.33-2.838-0.494-4.257c-0.017-0.136-0.032-0.272-0.048-0.408C152.325,78.464,152.332,78.441,152.328,78.325
				C152.332,78.21,152.323,78.441,152.328,78.325z"/>
		</g>
		<g enable-background="new    ">
			<path fill="#FFFFFF" d="M159.936,85.708c-0.54-1.099-0.092-2.527,1.279-2.55c0.58-0.012,1.039,0.355,1.457,0.713
				c0.516,0.44,1.142,0.68,1.809,0.769c0.542,0.071,1.169,0.149,1.466-0.423c0.275-0.53,0.041-1.184-0.454-1.468
				c-0.56-0.321-1.225-0.289-1.843-0.397c-0.658-0.114-1.304-0.301-1.925-0.548c-2.516-0.989-2.866-4.266-1.218-6.187
				c0.913-1.062,2.199-1.453,3.569-1.432c1.062,0.018,2.624,0.191,3.325,1.1c0.63,0.82,0.601,2.189-0.568,2.479
				c-1.233,0.308-2.506-0.793-3.728-0.166c-0.388,0.155-0.533,0.896-0.24,1.185c0.438,0.433,1.403,0.463,1.974,0.555
				c1.299,0.207,2.707,0.484,3.538,1.601c1.579,2.125,0.923,5.421-1.509,6.607c-1.183,0.576-2.579,0.544-3.812,0.15
				C162.074,87.382,160.456,86.667,159.936,85.708z"/>
		</g>
	</g>
</g>
</svg>
